<mxfile host="app.diagrams.net" agent="Mozilla/5.0 (X11; Linux x86_64; rv:132.0) Gecko/20100101 Firefox/132.0" version="24.8.2">
  <diagram name="Page-1" id="KcYTpL-ff8ruV8fbdGf-">
    <mxGraphModel dx="1050" dy="519" grid="1" gridSize="10" guides="1" tooltips="1" connect="1" arrows="1" fold="1" page="1" pageScale="1" pageWidth="827" pageHeight="1169" math="0" shadow="0">
      <root>
        <mxCell id="0" />
        <mxCell id="1" parent="0" />
        <mxCell id="DNsbt84PIh2vWpGsc9Ce-4" style="edgeStyle=orthogonalEdgeStyle;rounded=0;orthogonalLoop=1;jettySize=auto;html=1;entryX=0;entryY=0.5;entryDx=0;entryDy=0;" edge="1" parent="1" source="DNsbt84PIh2vWpGsc9Ce-1" target="DNsbt84PIh2vWpGsc9Ce-3">
          <mxGeometry relative="1" as="geometry" />
        </mxCell>
        <mxCell id="DNsbt84PIh2vWpGsc9Ce-1" value="Tela de Menu" style="rounded=1;whiteSpace=wrap;html=1;" vertex="1" parent="1">
          <mxGeometry x="140" y="210" width="120" height="60" as="geometry" />
        </mxCell>
        <mxCell id="DNsbt84PIh2vWpGsc9Ce-2" value="Tela de Game Over" style="rounded=1;whiteSpace=wrap;html=1;" vertex="1" parent="1">
          <mxGeometry x="420" y="460" width="120" height="60" as="geometry" />
        </mxCell>
        <mxCell id="DNsbt84PIh2vWpGsc9Ce-7" style="edgeStyle=orthogonalEdgeStyle;rounded=0;orthogonalLoop=1;jettySize=auto;html=1;" edge="1" parent="1" source="DNsbt84PIh2vWpGsc9Ce-3" target="DNsbt84PIh2vWpGsc9Ce-5">
          <mxGeometry relative="1" as="geometry" />
        </mxCell>
        <mxCell id="DNsbt84PIh2vWpGsc9Ce-3" value="Tela da cena do monólogo do protagonista" style="rounded=1;whiteSpace=wrap;html=1;" vertex="1" parent="1">
          <mxGeometry x="340" y="210" width="120" height="60" as="geometry" />
        </mxCell>
        <mxCell id="DNsbt84PIh2vWpGsc9Ce-8" style="edgeStyle=orthogonalEdgeStyle;rounded=0;orthogonalLoop=1;jettySize=auto;html=1;entryX=0.5;entryY=0;entryDx=0;entryDy=0;" edge="1" parent="1" source="DNsbt84PIh2vWpGsc9Ce-5" target="DNsbt84PIh2vWpGsc9Ce-6">
          <mxGeometry relative="1" as="geometry" />
        </mxCell>
        <mxCell id="DNsbt84PIh2vWpGsc9Ce-5" value="Tela do oceano (gameplay)" style="rounded=1;whiteSpace=wrap;html=1;" vertex="1" parent="1">
          <mxGeometry x="540" y="210" width="120" height="60" as="geometry" />
        </mxCell>
        <mxCell id="DNsbt84PIh2vWpGsc9Ce-12" style="edgeStyle=orthogonalEdgeStyle;rounded=0;orthogonalLoop=1;jettySize=auto;html=1;" edge="1" parent="1" source="DNsbt84PIh2vWpGsc9Ce-6" target="DNsbt84PIh2vWpGsc9Ce-2">
          <mxGeometry relative="1" as="geometry" />
        </mxCell>
        <mxCell id="DNsbt84PIh2vWpGsc9Ce-13" style="edgeStyle=orthogonalEdgeStyle;rounded=0;orthogonalLoop=1;jettySize=auto;html=1;entryX=0.5;entryY=0;entryDx=0;entryDy=0;" edge="1" parent="1" source="DNsbt84PIh2vWpGsc9Ce-6" target="DNsbt84PIh2vWpGsc9Ce-10">
          <mxGeometry relative="1" as="geometry" />
        </mxCell>
        <mxCell id="DNsbt84PIh2vWpGsc9Ce-6" value="&lt;div&gt;Tela do oceano do mal&lt;/div&gt;&lt;div&gt;&amp;nbsp;(gameplay)&lt;/div&gt;" style="rounded=1;whiteSpace=wrap;html=1;" vertex="1" parent="1">
          <mxGeometry x="540" y="330" width="120" height="60" as="geometry" />
        </mxCell>
        <mxCell id="DNsbt84PIh2vWpGsc9Ce-20" style="edgeStyle=orthogonalEdgeStyle;rounded=0;orthogonalLoop=1;jettySize=auto;html=1;entryX=1;entryY=0.5;entryDx=0;entryDy=0;" edge="1" parent="1" source="DNsbt84PIh2vWpGsc9Ce-10" target="DNsbt84PIh2vWpGsc9Ce-19">
          <mxGeometry relative="1" as="geometry" />
        </mxCell>
        <mxCell id="DNsbt84PIh2vWpGsc9Ce-10" value="Tela de Próximo dia / Tela de Vitória" style="rounded=1;whiteSpace=wrap;html=1;" vertex="1" parent="1">
          <mxGeometry x="660" y="460" width="120" height="60" as="geometry" />
        </mxCell>
        <mxCell id="DNsbt84PIh2vWpGsc9Ce-18" value="Tela de Próximo dia / Tela de Vitória" style="rounded=1;whiteSpace=wrap;html=1;" vertex="1" parent="1">
          <mxGeometry x="540" y="550" width="130" height="60" as="geometry" />
        </mxCell>
        <mxCell id="DNsbt84PIh2vWpGsc9Ce-19" value="Tela de créditos" style="rounded=1;whiteSpace=wrap;html=1;" vertex="1" parent="1">
          <mxGeometry x="540" y="550" width="130" height="60" as="geometry" />
        </mxCell>
        <mxCell id="DNsbt84PIh2vWpGsc9Ce-21" style="edgeStyle=orthogonalEdgeStyle;rounded=0;orthogonalLoop=1;jettySize=auto;html=1;entryX=0;entryY=0.5;entryDx=0;entryDy=0;" edge="1" parent="1" source="DNsbt84PIh2vWpGsc9Ce-2" target="DNsbt84PIh2vWpGsc9Ce-19">
          <mxGeometry relative="1" as="geometry" />
        </mxCell>
      </root>
    </mxGraphModel>
  </diagram>
</mxfile>
